<?xml version="1.0" encoding="UTF-8"?>
<svg width="135px" height="36px" viewBox="0 0 135 36" version="1.1" xmlns="http://www.w3.org/2000/svg" xmlns:xlink="http://www.w3.org/1999/xlink">
    <title>codeEric</title>
    <g id="Page-1" stroke="none" stroke-width="1" fill="none" fill-rule="evenodd">
        <g id="code(Eric)" transform="translate(4.320522, 7.124000)" fill-rule="nonzero">
            <path d="M6.226,16.5 C4.73,16.5 3.63,15.708 3.63,13.112 C3.63,10.472 4.664,9.482 6.248,9.482 C7.194,9.482 8.074,9.812 8.866,10.362 L10.362,8.272 C9.196,7.304 7.854,6.798 6.094,6.798 C2.332,6.798 0,9.46 0,13.112 C0,16.764 2.244,19.25 6.028,19.25 C7.832,19.25 9.328,18.59 10.362,17.71 L8.822,15.51 C7.986,16.082 7.172,16.5 6.226,16.5 Z" id="Path" fill="#2E90EF"></path>
            <path d="M18.282,6.798 C14.696,6.798 12.606,9.306 12.606,13.024 C12.606,16.962 14.696,19.25 18.282,19.25 C21.868,19.25 23.958,16.918 23.958,13.002 C23.958,9.262 21.89,6.798 18.282,6.798 Z M18.282,9.372 C19.712,9.372 20.372,10.472 20.372,13.002 C20.372,15.62 19.712,16.698 18.282,16.698 C16.852,16.698 16.192,15.62 16.192,13.024 C16.192,10.472 16.852,9.372 18.282,9.372 Z" id="Shape" fill="#2E90EF"></path>
            <path d="M33.066,2.178 L33.066,7.898 C32.362,7.172 31.46,6.798 30.426,6.798 C27.544,6.798 25.762,9.394 25.762,13.002 C25.762,16.764 27.148,19.25 30.052,19.25 C31.592,19.25 32.648,18.502 33.286,17.6 L33.462,18.876 L36.542,18.876 L36.542,2.552 L33.066,2.178 Z M31.35,9.35 C32.076,9.35 32.582,9.702 33.066,10.318 L33.066,15.356 C32.56,16.192 31.944,16.698 31.152,16.698 C30.096,16.698 29.348,15.906 29.348,13.024 C29.348,10.406 30.14,9.35 31.35,9.35 Z" id="Shape" fill="#2E90EF"></path>
            <path d="M42.636,14.058 L50.204,14.058 C50.248,13.706 50.27,13.2 50.27,12.804 C50.27,9.042 48.136,6.798 44.792,6.798 C41.118,6.798 39.094,9.592 39.094,13.046 C39.094,16.676 41.162,19.25 45.166,19.25 C47.146,19.25 48.73,18.59 49.83,17.644 L48.444,15.752 C47.52,16.346 46.508,16.72 45.452,16.72 C43.956,16.72 42.878,15.972 42.636,14.058 Z M44.792,9.13 C46.266,9.13 46.86,10.252 46.882,11.946 L42.592,11.946 C42.746,10.01 43.56,9.13 44.792,9.13 Z" id="Shape" fill="#2E90EF"></path>
            <path d="M57.024,11.176 C57.024,7.546 58.234,5.06 61.182,1.826 L59.18,0 C55.704,2.992 53.504,6.358 53.504,11.176 C53.504,15.994 55.704,19.36 59.18,22.352 L61.182,20.526 C58.014,17.072 57.024,14.806 57.024,11.176 Z" id="Path" fill="#3C3C3C"></path>
            <polygon id="Path" fill="#2E37EF" points="70.136 6.204 76.12 6.204 76.494 3.63 66.528 3.63 66.528 18.876 76.494 18.876 76.494 16.28 70.136 16.28 70.136 12.386 75.416 12.386 75.416 9.878 70.136 9.878"></polygon>
            <path d="M88.132,6.842 C86.262,6.842 84.986,7.81 84.15,9.812 L83.534,7.194 L79.332,7.194 L79.332,9.504 L80.872,9.504 L80.872,16.544 L79.332,16.544 L79.332,18.876 L86.658,18.876 L86.658,16.544 L84.348,16.544 L84.348,13.2 C84.898,11.462 85.91,10.164 87.23,9.922 L87.23,12.078 L89.43,12.078 L90.068,7.194 C89.518,6.974 88.924,6.842 88.132,6.842 Z" id="Path" fill="#2E37EF"></path>
            <path d="M97.46,1.078 C96.25,1.078 95.392,1.936 95.392,3.036 C95.392,4.158 96.25,4.994 97.46,4.994 C98.67,4.994 99.506,4.158 99.506,3.036 C99.506,1.936 98.67,1.078 97.46,1.078 Z M99.55,7.194 L92.884,7.194 L92.884,9.57 L96.074,9.57 L96.074,16.5 L92.774,16.5 L92.774,18.876 L102.542,18.876 L102.542,16.5 L99.55,16.5 L99.55,7.194 Z" id="Shape" fill="#2E37EF"></path>
            <path d="M111.826,16.5 C110.33,16.5 109.23,15.708 109.23,13.112 C109.23,10.472 110.264,9.482 111.848,9.482 C112.794,9.482 113.674,9.812 114.466,10.362 L115.962,8.272 C114.796,7.304 113.454,6.798 111.694,6.798 C107.932,6.798 105.6,9.46 105.6,13.112 C105.6,16.764 107.844,19.25 111.628,19.25 C113.432,19.25 114.928,18.59 115.962,17.71 L114.422,15.51 C113.586,16.082 112.772,16.5 111.826,16.5 Z" id="Path" fill="#2E37EF"></path>
            <path d="M124.74,11.176 C124.74,14.806 123.75,17.072 120.582,20.526 L122.584,22.352 C126.06,19.36 128.26,15.994 128.26,11.176 C128.26,6.358 126.06,2.992 122.584,0 L120.582,1.826 C123.53,5.06 124.74,7.546 124.74,11.176 Z" id="Path" fill="#3C3C3C"></path>
        </g>
    </g>
</svg>